<?xml version="1.0" standalone="no"?><svg xmlns="http://www.w3.org/2000/svg" viewBox="0 0 1440 320"><path fill="#0ABEAD" fill-opacity="1" d="M0,64L24,85.3C48,107,96,149,144,165.3C192,181,240,171,288,149.3C336,128,384,96,432,112C480,128,528,192,576,218.7C624,245,672,235,720,197.3C768,160,816,96,864,96C912,96,960,160,1008,208C1056,256,1104,288,1152,288C1200,288,1248,256,1296,245.3C1344,235,1392,245,1416,250.7L1440,256L1440,320L1416,320C1392,320,1344,320,1296,320C1248,320,1200,320,1152,320C1104,320,1056,320,1008,320C960,320,912,320,864,320C816,320,768,320,720,320C672,320,624,320,576,320C528,320,480,320,432,320C384,320,336,320,288,320C240,320,192,320,144,320C96,320,48,320,24,320L0,320Z"></path></svg>